<?xml version="1.0" encoding="UTF-8" standalone="no"?>
<!-- Created with Inkscape (http://www.inkscape.org/) -->

<svg
   xmlns:dc="http://purl.org/dc/elements/1.1/"
   xmlns:cc="http://creativecommons.org/ns#"
   xmlns:rdf="http://www.w3.org/1999/02/22-rdf-syntax-ns#"
   xmlns:svg="http://www.w3.org/2000/svg"
   xmlns="http://www.w3.org/2000/svg"
   xmlns:sodipodi="http://sodipodi.sourceforge.net/DTD/sodipodi-0.dtd"
   xmlns:inkscape="http://www.inkscape.org/namespaces/inkscape"
   width="76mm"
   height="22mm"
   viewBox="0 0 76 22"
   version="1.1"
   id="svg983"
   inkscape:version="0.92.4 (5da689c313, 2019-01-14)"
   sodipodi:docname="grid_snap_click_rendered.svg">
  <defs
     id="defs977" />
  <sodipodi:namedview
     id="base"
     pagecolor="#ffffff"
     bordercolor="#666666"
     borderopacity="1.0"
     inkscape:pageopacity="0.0"
     inkscape:pageshadow="2"
     inkscape:zoom="3.959798"
     inkscape:cx="28.592944"
     inkscape:cy="61.932463"
     inkscape:document-units="mm"
     inkscape:current-layer="layer1"
     showgrid="false"
     inkscape:window-width="1920"
     inkscape:window-height="1025"
     inkscape:window-x="0"
     inkscape:window-y="27"
     inkscape:window-maximized="1" />
  <metadata
     id="metadata980">
    <rdf:RDF>
      <cc:Work
         rdf:about="">
        <dc:format>image/svg+xml</dc:format>
        <dc:type
           rdf:resource="http://purl.org/dc/dcmitype/StillImage" />
        <dc:title />
      </cc:Work>
    </rdf:RDF>
  </metadata>
  <g
     inkscape:label="Layer 1"
     inkscape:groupmode="layer"
     id="layer1"
     transform="translate(0,-275)">
    <rect
       style="display:inline;fill:#5a5a5a;fill-opacity:1;stroke:none;stroke-width:0.53628707;stroke-linecap:round;stroke-miterlimit:4;stroke-dasharray:none;stroke-opacity:1"
       id="rect2145"
       width="76.253731"
       height="23.207684"
       x="-0.12686624"
       y="274.39615"
       inkscape:export-xdpi="96"
       inkscape:export-ydpi="96" />
    <rect
       inkscape:export-ydpi="96"
       inkscape:export-xdpi="96"
       y="275.50131"
       x="0.97827762"
       height="20.997427"
       width="74.043495"
       id="rect2097"
       style="display:inline;fill:#ff6501;fill-opacity:1;stroke:none;stroke-width:0.50266355;stroke-linecap:round;stroke-miterlimit:4;stroke-dasharray:none;stroke-opacity:1" />
    <g
       aria-label="GRID SNAP"
       style="font-style:normal;font-variant:normal;font-weight:bold;font-stretch:normal;font-size:10.0159111px;line-height:1.25;font-family:Cantarell;-inkscape-font-specification:'Cantarell Bold';letter-spacing:0px;word-spacing:0px;display:inline;fill:#ffffff;fill-opacity:1;stroke:none;stroke-width:0.25039777"
       id="text2101">
      <path
         d="m 12.004982,290.22159 c 1.192913,0 2.246847,-0.35903 3.103892,-1.06551 v -3.56716 h -3.42818 v 1.27398 h 1.980469 v 1.70251 c -0.405359,0.23163 -0.914953,0.34745 -1.459293,0.34745 -1.690926,0 -2.7564415,-1.12342 -2.7564415,-2.91859 0,-1.73725 0.9960255,-2.72169 2.7911865,-2.72169 0.706483,0 1.528783,0.15056 2.142613,0.37061 l 0.428522,-1.16975 c -0.694901,-0.33587 -1.57511,-0.52117 -2.478481,-0.52117 -2.6985335,0 -4.4473684,1.69092 -4.4473684,4.21573 0,2.43215 1.6445997,4.05359 4.1230814,4.05359 z"
         style="font-style:normal;font-variant:normal;font-weight:bold;font-stretch:normal;font-size:11.58168793px;font-family:Cantarell;-inkscape-font-specification:'Cantarell Bold';fill:#ffffff;fill-opacity:1;stroke-width:0.25039777"
         id="path819"
         inkscape:connector-curvature="0" />
      <path
         d="m 16.748949,290.10577 h 1.494038 v -2.99965 h 1.355058 l 1.714089,2.99965 h 1.795162 l -2.015214,-3.31236 c 0.926535,-0.4401 1.50562,-1.29715 1.50562,-2.38583 0,-1.48245 -1.088679,-2.3395 -2.849095,-2.3395 h -2.999658 z m 2.802769,-6.74054 c 0.938117,0 1.494038,0.47485 1.494038,1.27399 0,0.75281 -0.463268,1.20449 -1.297149,1.20449 h -1.50562 v -2.47848 z"
         style="font-style:normal;font-variant:normal;font-weight:bold;font-stretch:normal;font-size:11.58168793px;font-family:Cantarell;-inkscape-font-specification:'Cantarell Bold';fill:#ffffff;fill-opacity:1;stroke-width:0.25039777"
         id="path821"
         inkscape:connector-curvature="0" />
      <path
         d="m 24.326812,290.10577 h 1.517201 v -8.03769 h -1.517201 z"
         style="font-style:normal;font-variant:normal;font-weight:bold;font-stretch:normal;font-size:11.58168793px;font-family:Cantarell;-inkscape-font-specification:'Cantarell Bold';fill:#ffffff;fill-opacity:1;stroke-width:0.25039777"
         id="path823"
         inkscape:connector-curvature="0" />
      <path
         d="m 27.810367,290.10577 h 2.663788 c 2.594298,0 4.331551,-1.62143 4.331551,-4.18099 0,-2.42057 -1.551946,-3.8567 -4.169407,-3.8567 h -2.825932 z m 1.482456,-1.28556 v -5.46656 h 1.227659 c 1.748835,0 2.74486,1.01919 2.74486,2.76802 0,1.72567 -0.938117,2.69854 -2.617462,2.69854 z"
         style="font-style:normal;font-variant:normal;font-weight:bold;font-stretch:normal;font-size:11.58168793px;font-family:Cantarell;-inkscape-font-specification:'Cantarell Bold';fill:#ffffff;fill-opacity:1;stroke-width:0.25039777"
         id="path825"
         inkscape:connector-curvature="0" />
      <path
         d="m 40.733541,290.22159 c 1.968887,0 3.138637,-0.97286 3.138637,-2.47848 0,-2.907 -4.227316,-1.8994 -4.227316,-3.52083 0,-0.61383 0.567503,-0.96128 1.563528,-0.96128 0.671738,0 1.401384,0.12739 1.968887,0.34745 l 0.428522,-1.18134 c -0.683319,-0.30112 -1.517201,-0.47484 -2.304756,-0.47484 -1.92256,0 -3.208127,0.98444 -3.208127,2.50164 0,2.74486 4.215734,1.84149 4.215734,3.47451 0,0.59066 -0.509594,0.9497 -1.505619,0.9497 -0.729647,0 -1.621437,-0.16215 -2.420573,-0.49802 l -0.416941,1.2045 c 0.857045,0.39378 1.841489,0.63699 2.768024,0.63699 z"
         style="font-style:normal;font-variant:normal;font-weight:bold;font-stretch:normal;font-size:11.58168793px;font-family:Cantarell;-inkscape-font-specification:'Cantarell Bold';fill:#ffffff;fill-opacity:1;stroke-width:0.25039777"
         id="path827"
         inkscape:connector-curvature="0" />
      <path
         d="m 45.296001,290.10577 h 1.412966 v -5.99931 l 3.949355,5.99931 h 1.667763 v -8.03769 h -1.424547 l -0.01158,5.98774 -3.879865,-5.98774 h -1.71409 z"
         style="font-style:normal;font-variant:normal;font-weight:bold;font-stretch:normal;font-size:11.58168793px;font-family:Cantarell;-inkscape-font-specification:'Cantarell Bold';fill:#ffffff;fill-opacity:1;stroke-width:0.25039777"
         id="path829"
         inkscape:connector-curvature="0" />
      <path
         d="m 53.499817,290.10577 h 1.586691 l 0.660156,-2.01521 h 3.080729 l 0.660157,2.01521 h 1.656181 l -2.791187,-8.03769 h -1.910978 z m 2.686951,-3.3471 1.111843,-3.40502 1.10026,3.40502 z"
         style="font-style:normal;font-variant:normal;font-weight:bold;font-stretch:normal;font-size:11.58168793px;font-family:Cantarell;-inkscape-font-specification:'Cantarell Bold';fill:#ffffff;fill-opacity:1;stroke-width:0.25039777"
         id="path831"
         inkscape:connector-curvature="0" />
      <path
         d="m 62.329223,290.10577 h 1.494038 v -2.58271 h 1.007607 c 1.99205,0 3.312362,-1.12343 3.312362,-2.83752 0,-1.60985 -1.181332,-2.61746 -3.057565,-2.61746 h -2.756442 z m 2.617461,-6.72896 c 0.984444,0 1.6446,0.60225 1.6446,1.49404 0,0.86863 -0.544339,1.35506 -1.494038,1.35506 h -1.273985 v -2.8491 z"
         style="font-style:normal;font-variant:normal;font-weight:bold;font-stretch:normal;font-size:11.58168793px;font-family:Cantarell;-inkscape-font-specification:'Cantarell Bold';fill:#ffffff;fill-opacity:1;stroke-width:0.25039777"
         id="path833"
         inkscape:connector-curvature="0" />
    </g>
  </g>
</svg>
