<?xml version="1.0" encoding="UTF-8" standalone="no"?>
<!-- Created with Inkscape (http://www.inkscape.org/) -->

<svg
   xmlns:dc="http://purl.org/dc/elements/1.1/"
   xmlns:cc="http://creativecommons.org/ns#"
   xmlns:rdf="http://www.w3.org/1999/02/22-rdf-syntax-ns#"
   xmlns:svg="http://www.w3.org/2000/svg"
   xmlns="http://www.w3.org/2000/svg"
   xmlns:sodipodi="http://sodipodi.sourceforge.net/DTD/sodipodi-0.dtd"
   xmlns:inkscape="http://www.inkscape.org/namespaces/inkscape"
   width="32mm"
   height="128mm"
   viewBox="0 0 32 128"
   version="1.1"
   id="svg2131"
   inkscape:version="0.92.4 (5da689c313, 2019-01-14)"
   sodipodi:docname="range_rendered.svg">
  <defs
     id="defs2125" />
  <sodipodi:namedview
     id="base"
     pagecolor="#ffffff"
     bordercolor="#666666"
     borderopacity="1.0"
     inkscape:pageopacity="0.0"
     inkscape:pageshadow="2"
     inkscape:zoom="3.959798"
     inkscape:cx="53.400057"
     inkscape:cy="-30.403688"
     inkscape:document-units="mm"
     inkscape:current-layer="g2725"
     showgrid="false"
     inkscape:window-width="1920"
     inkscape:window-height="1025"
     inkscape:window-x="0"
     inkscape:window-y="27"
     inkscape:window-maximized="1" />
  <metadata
     id="metadata2128">
    <rdf:RDF>
      <cc:Work
         rdf:about="">
        <dc:format>image/svg+xml</dc:format>
        <dc:type
           rdf:resource="http://purl.org/dc/dcmitype/StillImage" />
        <dc:title></dc:title>
      </cc:Work>
    </rdf:RDF>
  </metadata>
  <g
     inkscape:label="Layer 1"
     inkscape:groupmode="layer"
     id="layer1"
     transform="translate(0,-169)">
    <g
       id="g2725"
       transform="matrix(2.7721626,0,0,2.7721626,-214.51851,55.11957)">
      <rect
         inkscape:export-ydpi="96"
         inkscape:export-xdpi="96"
         y="47.365826"
         x="84.344757"
         height="38.893738"
         width="0.26457661"
         id="rect2307"
         style="display:inline;fill:#5a5a5a;fill-opacity:1;stroke:none;stroke-width:0.04089464;stroke-linecap:round;stroke-miterlimit:4;stroke-dasharray:none;stroke-opacity:1" />
      <rect
         transform="rotate(90)"
         style="display:inline;fill:#5a5a5a;fill-opacity:1;stroke:none;stroke-width:0.00892394;stroke-linecap:round;stroke-miterlimit:4;stroke-dasharray:none;stroke-opacity:1"
         id="rect2321"
         width="0.26457661"
         height="1.8520805"
         x="66.68042"
         y="-85.403076"
         inkscape:export-xdpi="96"
         inkscape:export-ydpi="96" />
      <rect
         transform="rotate(90)"
         style="display:inline;fill:#5a5a5a;fill-opacity:1;stroke:none;stroke-width:0.01216128;stroke-linecap:round;stroke-miterlimit:4;stroke-dasharray:none;stroke-opacity:1"
         id="rect2317"
         width="0.26457661"
         height="3.4395778"
         x="47.365826"
         y="-86.196838"
         inkscape:export-xdpi="96"
         inkscape:export-ydpi="96" />
      <rect
         inkscape:export-ydpi="96"
         inkscape:export-xdpi="96"
         y="-86.196838"
         x="85.99501"
         height="3.4395778"
         width="0.26457661"
         id="rect2319"
         style="display:inline;fill:#5a5a5a;fill-opacity:1;stroke:none;stroke-width:0.01216128;stroke-linecap:round;stroke-miterlimit:4;stroke-dasharray:none;stroke-opacity:1"
         transform="rotate(90)" />
      <g
         aria-label="RANGE"
         style="font-style:normal;font-variant:normal;font-weight:bold;font-stretch:normal;font-size:1.83701026px;line-height:1.25;font-family:Cantarell;-inkscape-font-specification:'Cantarell Bold';letter-spacing:0px;word-spacing:0px;display:inline;fill:#cfcfcd;fill-opacity:1;stroke:none;stroke-width:0.04592526"
         id="text2325">
        <path
           d="m 79.631148,42.964367 h 0.27402 v -0.550165 h 0.24853 l 0.31438,0.550165 h 0.329249 l -0.369608,-0.607518 c 0.169935,-0.08072 0.276144,-0.237909 0.276144,-0.437583 0,-0.271896 -0.199674,-0.429086 -0.52255,-0.429086 h -0.550165 z m 0.514054,-1.236278 c 0.172059,0 0.27402,0.08709 0.27402,0.233661 0,0.138072 -0.08497,0.220916 -0.237909,0.220916 h -0.276145 v -0.454577 z"
           style="font-style:normal;font-variant:normal;font-weight:bold;font-stretch:normal;font-size:2.12418818px;font-family:Cantarell;-inkscape-font-specification:'Cantarell Bold';fill:#cfcfcd;fill-opacity:1;stroke-width:0.04592526"
           id="path828"
           inkscape:connector-curvature="0" />
        <path
           d="m 80.874429,42.964367 h 0.291013 l 0.121079,-0.369609 h 0.565034 l 0.121079,0.369609 h 0.303759 L 81.764464,41.49018 h -0.350491 z m 0.492811,-0.61389 0.203922,-0.624512 0.201798,0.624512 z"
           style="font-style:normal;font-variant:normal;font-weight:bold;font-stretch:normal;font-size:2.12418818px;font-family:Cantarell;-inkscape-font-specification:'Cantarell Bold';fill:#cfcfcd;fill-opacity:1;stroke-width:0.04592526"
           id="path830"
           inkscape:connector-curvature="0" />
        <path
           d="m 82.493823,42.964367 h 0.259151 v -1.10033 l 0.724349,1.10033 h 0.305883 V 41.49018 h -0.261275 l -0.0021,1.098206 -0.711603,-1.098206 h -0.31438 z"
           style="font-style:normal;font-variant:normal;font-weight:bold;font-stretch:normal;font-size:2.12418818px;font-family:Cantarell;-inkscape-font-specification:'Cantarell Bold';fill:#cfcfcd;fill-opacity:1;stroke-width:0.04592526"
           id="path832"
           inkscape:connector-curvature="0" />
        <path
           d="m 84.814167,42.985609 c 0.218792,0 0.412093,-0.06585 0.569283,-0.195426 v -0.654249 h -0.62876 v 0.23366 h 0.363236 v 0.312256 c -0.07435,0.04248 -0.167811,0.06373 -0.267648,0.06373 -0.310131,0 -0.505556,-0.206047 -0.505556,-0.535296 0,-0.318628 0.18268,-0.499184 0.511929,-0.499184 0.129575,0 0.280393,0.02761 0.392975,0.06797 l 0.07859,-0.214543 c -0.127452,-0.0616 -0.28889,-0.09559 -0.454577,-0.09559 -0.494935,0 -0.815688,0.310132 -0.815688,0.773205 0,0.446079 0.301635,0.743466 0.756211,0.743466 z"
           style="font-style:normal;font-variant:normal;font-weight:bold;font-stretch:normal;font-size:2.12418818px;font-family:Cantarell;-inkscape-font-specification:'Cantarell Bold';fill:#cfcfcd;fill-opacity:1;stroke-width:0.04592526"
           id="path834"
           inkscape:connector-curvature="0" />
        <path
           d="m 85.684254,42.964367 h 0.99412 v -0.240033 h -0.720099 v -0.395099 h 0.660622 v -0.240034 h -0.660622 v -0.358987 h 0.720099 V 41.49018 h -0.99412 z"
           style="font-style:normal;font-variant:normal;font-weight:bold;font-stretch:normal;font-size:2.12418818px;font-family:Cantarell;-inkscape-font-specification:'Cantarell Bold';fill:#cfcfcd;fill-opacity:1;stroke-width:0.04592526"
           id="path836"
           inkscape:connector-curvature="0" />
      </g>
      <g
         aria-label="+1"
         style="font-style:normal;font-variant:normal;font-weight:bold;font-stretch:normal;font-size:1.83701026px;line-height:1.25;font-family:Cantarell;-inkscape-font-specification:'Cantarell Bold';letter-spacing:0px;word-spacing:0px;display:inline;fill:#cfcfcd;fill-opacity:1;stroke:none;stroke-width:0.04592526"
         id="text2329">
        <path
           d="m 80.306426,48.107759 h 0.246406 v -0.452452 h 0.422714 v -0.240033 h -0.422714 v -0.437583 h -0.246406 v 0.437583 h -0.433334 v 0.240033 h 0.433334 z"
           style="font-style:normal;font-variant:normal;font-weight:bold;font-stretch:normal;font-size:2.12418818px;font-family:Cantarell;-inkscape-font-specification:'Cantarell Bold';fill:#cfcfcd;fill-opacity:1;stroke-width:0.04592526"
           id="path839"
           inkscape:connector-curvature="0" />
        <path
           d="m 81.196561,48.23521 h 0.847551 v -0.23366 h -0.284641 v -1.240526 h -0.163563 l -0.4567,0.278268 0.104085,0.191177 0.242157,-0.135948 v 0.907029 h -0.288889 z"
           style="font-style:normal;font-variant:normal;font-weight:bold;font-stretch:normal;font-size:2.12418818px;font-family:Cantarell;-inkscape-font-specification:'Cantarell Bold';fill:#cfcfcd;fill-opacity:1;stroke-width:0.04592526"
           id="path841"
           inkscape:connector-curvature="0" />
      </g>
      <g
         aria-label="-1"
         style="font-style:normal;font-variant:normal;font-weight:bold;font-stretch:normal;font-size:1.83701026px;line-height:1.25;font-family:Cantarell;-inkscape-font-specification:'Cantarell Bold';letter-spacing:0px;word-spacing:0px;display:inline;fill:#cfcfcd;fill-opacity:1;stroke:none;stroke-width:0.04592526"
         id="text2333">
        <path
           d="m 80.100377,86.431061 h 0.616015 v -0.220916 h -0.616015 z"
           style="font-style:normal;font-variant:normal;font-weight:bold;font-stretch:normal;font-size:2.12418818px;font-family:Cantarell;-inkscape-font-specification:'Cantarell Bold';fill:#cfcfcd;fill-opacity:1;stroke-width:0.04592526"
           id="path847"
           inkscape:connector-curvature="0" />
        <path
           d="m 80.97083,86.864395 h 0.847551 V 86.630734 H 81.53374 v -1.240525 h -0.163563 l -0.4567,0.278268 0.104085,0.191177 0.242158,-0.135948 v 0.907028 h -0.28889 z"
           style="font-style:normal;font-variant:normal;font-weight:bold;font-stretch:normal;font-size:2.12418818px;font-family:Cantarell;-inkscape-font-specification:'Cantarell Bold';fill:#cfcfcd;fill-opacity:1;stroke-width:0.04592526"
           id="path849"
           inkscape:connector-curvature="0" />
      </g>
      <g
         aria-label="0"
         style="font-style:normal;font-variant:normal;font-weight:bold;font-stretch:normal;font-size:1.83701026px;line-height:1.25;font-family:Cantarell;-inkscape-font-specification:'Cantarell Bold';letter-spacing:0px;word-spacing:0px;display:inline;fill:#cfcfcd;fill-opacity:1;stroke:none;stroke-width:0.04592526"
         id="text2337">
        <path
           d="m 80.955362,67.571047 c 0.35474,0 0.582028,-0.297387 0.582028,-0.766832 0,-0.460949 -0.22304,-0.749839 -0.569283,-0.749839 -0.358988,0 -0.586276,0.295262 -0.586276,0.766832 0,0.458825 0.22304,0.749839 0.573531,0.749839 z m 0.01062,-0.235785 c -0.186929,0 -0.301635,-0.203922 -0.301635,-0.531047 0,-0.316504 0.112582,-0.514054 0.293138,-0.514054 0.18268,0 0.297387,0.203922 0.297387,0.531047 0,0.316504 -0.110458,0.514054 -0.28889,0.514054 z"
           style="font-style:normal;font-variant:normal;font-weight:bold;font-stretch:normal;font-size:2.12418818px;font-family:Cantarell;-inkscape-font-specification:'Cantarell Bold';fill:#cfcfcd;fill-opacity:1;stroke-width:0.04592526"
           id="path844"
           inkscape:connector-curvature="0" />
      </g>
    </g>
  </g>
</svg>
